<svg width="144" height="132" viewBox="0 0 144 132" fill="none" xmlns="http://www.w3.org/2000/svg">
<path d="M122.385 22.3924L103.809 28.9724C104.595 31.1269 105.061 33.3979 105.061 35.7562C105.061 46.4995 96.356 55.3504 85.467 55.3504C76.8491 55.3504 69.5121 49.7022 66.8918 41.9868L0.88855 65.0748H143.551C143.551 49.4402 135.865 34.8536 122.385 22.3924ZM79.8188 23.0617C75.0731 25.2162 71.6666 30.0784 71.6666 35.6393C71.6666 43.2383 77.8972 49.4398 85.467 49.4398C93.0369 49.4398 99.2674 43.2091 99.2674 35.6393C99.2674 28.0694 93.1533 21.8389 85.467 21.8389C81.8568 10.9791 70.7349 1.57498 70.1818 1.10918C68.9298 0.090336 67.1247 0.206844 66.1057 1.45871C65.0867 2.71057 65.2031 4.51573 66.4551 5.53469C69.6286 8.12592 77.082 15.6083 79.8188 23.0617ZM0.88855 104.147H143.551V131.777H0.88855V104.147ZM0.88855 70.8395H143.551V98.4695H0.88855V70.8395Z" fill="url(#paint0_linear_427_1215)"/>
<defs>
<linearGradient id="paint0_linear_427_1215" x1="72.2198" y1="0.423462" x2="72.2198" y2="131.777" gradientUnits="userSpaceOnUse">
<stop stop-color="#168626"/>
<stop offset="1" stop-color="#003407" stop-opacity="0.72"/>
</linearGradient>
</defs>
</svg>
