<svg width="167" height="168" viewBox="0 0 167 168" fill="none" xmlns="http://www.w3.org/2000/svg">
<path d="M133.385 40.3924L114.809 46.9724C115.595 49.1269 116.061 51.3979 116.061 53.7562C116.061 64.4995 107.356 73.3504 96.467 73.3504C87.8491 73.3504 80.5121 67.7022 77.8918 59.9868L11.8885 83.0748H154.551C154.551 67.4402 146.865 52.8536 133.385 40.3924ZM90.8188 41.0617C86.0731 43.2162 82.6666 48.0784 82.6666 53.6393C82.6666 61.2383 88.8972 67.4398 96.467 67.4398C104.037 67.4398 110.267 61.2091 110.267 53.6393C110.267 46.0694 104.153 39.8389 96.467 39.8389C92.8568 28.9791 81.7349 19.575 81.1818 19.1092C79.9298 18.0903 78.1247 18.2068 77.1057 19.4587C76.0867 20.7106 76.2031 22.5157 77.4551 23.5347C80.6286 26.1259 88.082 33.6085 90.8188 41.0619L90.8188 41.0617ZM11.8885 122.147H154.551V149.777H11.8885V122.147ZM11.8885 88.8395H154.551V116.469H11.8885V88.8395Z" fill="url(#paint0_linear_427_1214)"/>
<defs>
<linearGradient id="paint0_linear_427_1214" x1="83.2198" y1="18.4235" x2="83.2198" y2="149.777" gradientUnits="userSpaceOnUse">
<stop stop-color="#168626"/>
<stop offset="1" stop-color="#003407" stop-opacity="0.72"/>
</linearGradient>
</defs>
</svg>
