<svg width="82" height="144" viewBox="0 0 82 144" fill="none" xmlns="http://www.w3.org/2000/svg">
<path d="M61.472 130.271H50.264V97.5622C69.4494 93.1272 83.3417 75.2587 81.4784 54.5351L77.0092 4.82614C76.8018 2.5263 74.8937 0.765137 72.6072 0.765137H9.98784C7.7042 0.765137 5.79322 2.5263 5.58868 4.82614L1.11666 54.5379C-0.746677 75.2615 13.1457 93.13 32.3311 97.565V130.271H21.123C14.9334 130.271 9.91498 135.269 9.91498 141.435C9.91498 142.669 10.9181 143.668 12.1566 143.668H70.4385C71.677 143.668 72.6801 142.669 72.6801 141.435C72.6801 135.269 67.6617 130.271 61.472 130.271ZM18.251 14.1623H64.3441L66.3531 36.4908H16.2419L18.251 14.1623Z" fill="url(#paint0_linear_425_1206)"/>
<defs>
<linearGradient id="paint0_linear_425_1206" x1="41.2975" y1="0.765137" x2="41.2975" y2="143.668" gradientUnits="userSpaceOnUse">
<stop stop-color="#003DC0"/>
<stop offset="1" stop-color="#03246C" stop-opacity="0.75"/>
</linearGradient>
</defs>
</svg>
