<svg width="161" height="216" viewBox="0 0 161 216" fill="none" xmlns="http://www.w3.org/2000/svg">
<g clip-path="url(#clip0_427_1222)">
<path d="M100.472 130.271H89.264V97.5622C108.449 93.1272 122.342 75.2587 120.478 54.5351L116.009 4.82614C115.802 2.5263 113.894 0.765137 111.607 0.765137H48.9878C46.7042 0.765137 44.7932 2.5263 44.5887 4.82614L40.1167 54.5379C38.2533 75.2615 52.1457 93.13 71.3311 97.565V130.271H60.123C53.9334 130.271 48.915 135.269 48.915 141.435C48.915 142.669 49.9181 143.668 51.1566 143.668H109.438C110.677 143.668 111.68 142.669 111.68 141.435C111.68 135.269 106.662 130.271 100.472 130.271ZM57.251 14.1623H103.344L105.353 36.4908H55.2419L57.251 14.1623Z" fill="url(#paint0_linear_427_1222)"/>
</g>
<path d="M10.6885 185.85C10.6885 183.81 11.1485 181.98 12.0685 180.36C12.9885 178.72 14.2385 177.44 15.8185 176.52C17.4185 175.6 19.1885 175.14 21.1285 175.14C23.4085 175.14 25.3985 175.69 27.0985 176.79C28.7985 177.89 30.0385 179.45 30.8185 181.47H27.5485C26.9685 180.21 26.1285 179.24 25.0285 178.56C23.9485 177.88 22.6485 177.54 21.1285 177.54C19.6685 177.54 18.3585 177.88 17.1985 178.56C16.0385 179.24 15.1285 180.21 14.4685 181.47C13.8085 182.71 13.4785 184.17 13.4785 185.85C13.4785 187.51 13.8085 188.97 14.4685 190.23C15.1285 191.47 16.0385 192.43 17.1985 193.11C18.3585 193.79 19.6685 194.13 21.1285 194.13C22.6485 194.13 23.9485 193.8 25.0285 193.14C26.1285 192.46 26.9685 191.49 27.5485 190.23H30.8185C30.0385 192.23 28.7985 193.78 27.0985 194.88C25.3985 195.96 23.4085 196.5 21.1285 196.5C19.1885 196.5 17.4185 196.05 15.8185 195.15C14.2385 194.23 12.9885 192.96 12.0685 191.34C11.1485 189.72 10.6885 187.89 10.6885 185.85ZM42.0524 196.59C40.5124 196.59 39.1124 196.24 37.8524 195.54C36.6124 194.84 35.6324 193.85 34.9124 192.57C34.2124 191.27 33.8624 189.77 33.8624 188.07C33.8624 186.39 34.2224 184.91 34.9424 183.63C35.6824 182.33 36.6824 181.34 37.9424 180.66C39.2024 179.96 40.6124 179.61 42.1724 179.61C43.7324 179.61 45.1424 179.96 46.4024 180.66C47.6624 181.34 48.6524 182.32 49.3724 183.6C50.1124 184.88 50.4824 186.37 50.4824 188.07C50.4824 189.77 50.1024 191.27 49.3424 192.57C48.6024 193.85 47.5924 194.84 46.3124 195.54C45.0324 196.24 43.6124 196.59 42.0524 196.59ZM42.0524 194.19C43.0324 194.19 43.9524 193.96 44.8124 193.5C45.6724 193.04 46.3624 192.35 46.8824 191.43C47.4224 190.51 47.6924 189.39 47.6924 188.07C47.6924 186.75 47.4324 185.63 46.9124 184.71C46.3924 183.79 45.7124 183.11 44.8724 182.67C44.0324 182.21 43.1224 181.98 42.1424 181.98C41.1424 181.98 40.2224 182.21 39.3824 182.67C38.5624 183.11 37.9024 183.79 37.4024 184.71C36.9024 185.63 36.6524 186.75 36.6524 188.07C36.6524 189.41 36.8924 190.54 37.3724 191.46C37.8724 192.38 38.5324 193.07 39.3524 193.53C40.1724 193.97 41.0724 194.19 42.0524 194.19ZM53.0518 188.04C53.0518 186.36 53.3918 184.89 54.0718 183.63C54.7518 182.35 55.6818 181.36 56.8618 180.66C58.0618 179.96 59.4018 179.61 60.8818 179.61C62.3018 179.61 63.5418 179.93 64.6018 180.57C65.6818 181.19 66.4718 181.96 66.9718 182.88V179.88H69.7318V204.12H66.9718V193.29C66.4518 194.21 65.6518 194.99 64.5718 195.63C63.4918 196.27 62.2318 196.59 60.7918 196.59C59.3518 196.59 58.0418 196.23 56.8618 195.51C55.6818 194.79 54.7518 193.78 54.0718 192.48C53.3918 191.18 53.0518 189.7 53.0518 188.04ZM66.9718 188.07C66.9718 186.83 66.7218 185.75 66.2218 184.83C65.7218 183.91 65.0418 183.21 64.1818 182.73C63.3418 182.23 62.4118 181.98 61.3918 181.98C60.3718 181.98 59.4418 182.22 58.6018 182.7C57.7618 183.18 57.0918 183.88 56.5918 184.8C56.0918 185.72 55.8418 186.8 55.8418 188.04C55.8418 189.3 56.0918 190.4 56.5918 191.34C57.0918 192.26 57.7618 192.97 58.6018 193.47C59.4418 193.95 60.3718 194.19 61.3918 194.19C62.4118 194.19 63.3418 193.95 64.1818 193.47C65.0418 192.97 65.7218 192.26 66.2218 191.34C66.7218 190.4 66.9718 189.31 66.9718 188.07ZM88.9253 179.88V196.32H86.1953V193.89C85.6753 194.73 84.9453 195.39 84.0053 195.87C83.0853 196.33 82.0653 196.56 80.9453 196.56C79.6653 196.56 78.5153 196.3 77.4953 195.78C76.4753 195.24 75.6653 194.44 75.0653 193.38C74.4853 192.32 74.1953 191.03 74.1953 189.51V179.88H76.8953V189.15C76.8953 190.77 77.3053 192.02 78.1253 192.9C78.9453 193.76 80.0653 194.19 81.4853 194.19C82.9453 194.19 84.0953 193.74 84.9353 192.84C85.7753 191.94 86.1953 190.63 86.1953 188.91V179.88H88.9253ZM94.9447 177.21C94.4247 177.21 93.9847 177.03 93.6247 176.67C93.2647 176.31 93.0847 175.87 93.0847 175.35C93.0847 174.83 93.2647 174.39 93.6247 174.03C93.9847 173.67 94.4247 173.49 94.9447 173.49C95.4447 173.49 95.8647 173.67 96.2047 174.03C96.5647 174.39 96.7447 174.83 96.7447 175.35C96.7447 175.87 96.5647 176.31 96.2047 176.67C95.8647 177.03 95.4447 177.21 94.9447 177.21ZM96.2647 179.88V196.32H93.5347V179.88H96.2647ZM104.248 182.13V191.82C104.248 192.62 104.418 193.19 104.758 193.53C105.098 193.85 105.688 194.01 106.528 194.01H108.538V196.32H106.078C104.558 196.32 103.418 195.97 102.658 195.27C101.898 194.57 101.518 193.42 101.518 191.82V182.13H99.3875V179.88H101.518V175.74H104.248V179.88H108.538V182.13H104.248ZM126.845 187.47C126.845 187.99 126.815 188.54 126.755 189.12H113.615C113.715 190.74 114.265 192.01 115.265 192.93C116.285 193.83 117.515 194.28 118.955 194.28C120.135 194.28 121.115 194.01 121.895 193.47C122.695 192.91 123.255 192.17 123.575 191.25H126.515C126.075 192.83 125.195 194.12 123.875 195.12C122.555 196.1 120.915 196.59 118.955 196.59C117.395 196.59 115.995 196.24 114.755 195.54C113.535 194.84 112.575 193.85 111.875 192.57C111.175 191.27 110.825 189.77 110.825 188.07C110.825 186.37 111.165 184.88 111.845 183.6C112.525 182.32 113.475 181.34 114.695 180.66C115.935 179.96 117.355 179.61 118.955 179.61C120.515 179.61 121.895 179.95 123.095 180.63C124.295 181.31 125.215 182.25 125.855 183.45C126.515 184.63 126.845 185.97 126.845 187.47ZM124.025 186.9C124.025 185.86 123.795 184.97 123.335 184.23C122.875 183.47 122.245 182.9 121.445 182.52C120.665 182.12 119.795 181.92 118.835 181.92C117.455 181.92 116.275 182.36 115.295 183.24C114.335 184.12 113.785 185.34 113.645 186.9H124.025ZM121.775 175.23L115.385 178.65V176.61L121.775 172.86V175.23ZM131.859 177.21C131.339 177.21 130.899 177.03 130.539 176.67C130.179 176.31 129.999 175.87 129.999 175.35C129.999 174.83 130.179 174.39 130.539 174.03C130.899 173.67 131.339 173.49 131.859 173.49C132.359 173.49 132.779 173.67 133.119 174.03C133.479 174.39 133.659 174.83 133.659 175.35C133.659 175.87 133.479 176.31 133.119 176.67C132.779 177.03 132.359 177.21 131.859 177.21ZM133.179 179.88V196.32H130.449V179.88H133.179ZM143.652 196.59C142.392 196.59 141.262 196.38 140.262 195.96C139.262 195.52 138.472 194.92 137.892 194.16C137.312 193.38 136.992 192.49 136.932 191.49H139.752C139.832 192.31 140.212 192.98 140.892 193.5C141.592 194.02 142.502 194.28 143.622 194.28C144.662 194.28 145.482 194.05 146.082 193.59C146.682 193.13 146.982 192.55 146.982 191.85C146.982 191.13 146.662 190.6 146.022 190.26C145.382 189.9 144.392 189.55 143.052 189.21C141.832 188.89 140.832 188.57 140.052 188.25C139.292 187.91 138.632 187.42 138.072 186.78C137.532 186.12 137.262 185.26 137.262 184.2C137.262 183.36 137.512 182.59 138.012 181.89C138.512 181.19 139.222 180.64 140.142 180.24C141.062 179.82 142.112 179.61 143.292 179.61C145.112 179.61 146.582 180.07 147.702 180.99C148.822 181.91 149.422 183.17 149.502 184.77H146.772C146.712 183.91 146.362 183.22 145.722 182.7C145.102 182.18 144.262 181.92 143.202 181.92C142.222 181.92 141.442 182.13 140.862 182.55C140.282 182.97 139.992 183.52 139.992 184.2C139.992 184.74 140.162 185.19 140.502 185.55C140.862 185.89 141.302 186.17 141.822 186.39C142.362 186.59 143.102 186.82 144.042 187.08C145.222 187.4 146.182 187.72 146.922 188.04C147.662 188.34 148.292 188.8 148.812 189.42C149.352 190.04 149.632 190.85 149.652 191.85C149.652 192.75 149.402 193.56 148.902 194.28C148.402 195 147.692 195.57 146.772 195.99C145.872 196.39 144.832 196.59 143.652 196.59Z" fill="#6A6A6A"/>
<defs>
<linearGradient id="paint0_linear_427_1222" x1="80.2975" y1="0.765137" x2="80.2975" y2="143.668" gradientUnits="userSpaceOnUse">
<stop stop-color="#003DC0"/>
<stop offset="1" stop-color="#03246C" stop-opacity="0.75"/>
</linearGradient>
<clipPath id="clip0_427_1222">
<rect width="80.698" height="142.903" fill="white" transform="translate(39.948 0.765137)"/>
</clipPath>
</defs>
</svg>
