<svg width="107" height="144" viewBox="0 0 107 144" fill="none" xmlns="http://www.w3.org/2000/svg">
<path d="M93.435 45.3065H93.174C93.8169 39.6785 93.2689 33.9776 91.5658 28.5775C89.8628 23.1774 87.0431 18.2001 83.2918 13.9721C79.5406 9.7441 74.9424 6.3609 69.7988 4.04435C64.6553 1.72781 59.0826 0.530273 53.4463 0.530273C47.81 0.530273 42.2373 1.72781 37.0937 4.04435C31.9502 6.3609 27.352 9.7441 23.6007 13.9721C19.8494 18.2001 17.0298 23.1774 15.3267 28.5775C13.6237 33.9776 13.0756 39.6785 13.7186 45.3065H13.4576C9.92233 45.3065 6.5319 46.7179 4.03212 49.2304C1.53234 51.7428 0.127975 55.1504 0.127975 58.7036C0.127975 62.2567 1.53234 65.6643 4.03212 68.1768C6.5319 70.6892 9.92233 72.1007 13.4576 72.1007H93.435C96.9703 72.1007 100.361 70.6892 102.86 68.1768C105.36 65.6643 106.765 62.2567 106.765 58.7036C106.765 55.1504 105.36 51.7428 102.86 49.2304C100.361 46.7179 96.9703 45.3065 93.435 45.3065ZM45.4985 138.442C46.1991 139.968 47.32 141.26 48.7285 142.166C50.137 143.072 51.7741 143.553 53.4463 143.553C55.1185 143.553 56.7556 143.072 58.1641 142.166C59.5726 141.26 60.6934 139.968 61.3941 138.442L88.9918 81.0321H17.9007L45.4985 138.442Z" fill="url(#paint0_linear_425_1208)"/>
<defs>
<linearGradient id="paint0_linear_425_1208" x1="53.4463" y1="0.530273" x2="53.4463" y2="143.553" gradientUnits="userSpaceOnUse">
<stop stop-color="#B0002D"/>
<stop offset="1" stop-color="#820021" stop-opacity="0.69"/>
</linearGradient>
</defs>
</svg>
