<svg width="145" height="210" viewBox="0 0 145 210" fill="none" xmlns="http://www.w3.org/2000/svg">
<g clip-path="url(#clip0_427_1223)">
<path d="M112.435 45.3065H112.174C112.817 39.6785 112.269 33.9776 110.566 28.5775C108.863 23.1774 106.043 18.2001 102.292 13.9721C98.5406 9.7441 93.9424 6.3609 88.7988 4.04435C83.6553 1.72781 78.0826 0.530273 72.4463 0.530273C66.81 0.530273 61.2373 1.72781 56.0937 4.04435C50.9502 6.3609 46.352 9.7441 42.6007 13.9721C38.8494 18.2001 36.0298 23.1774 34.3267 28.5775C32.6237 33.9776 32.0756 39.6785 32.7186 45.3065H32.4576C28.9223 45.3065 25.5319 46.7179 23.0321 49.2304C20.5323 51.7428 19.128 55.1504 19.128 58.7036C19.128 62.2567 20.5323 65.6643 23.0321 68.1768C25.5319 70.6892 28.9223 72.1007 32.4576 72.1007H112.435C115.97 72.1007 119.361 70.6892 121.86 68.1768C124.36 65.6643 125.765 62.2567 125.765 58.7036C125.765 55.1504 124.36 51.7428 121.86 49.2304C119.361 46.7179 115.97 45.3065 112.435 45.3065ZM64.4985 138.442C65.1991 139.968 66.32 141.26 67.7285 142.166C69.137 143.072 70.7741 143.553 72.4463 143.553C74.1185 143.553 75.7556 143.072 77.1641 142.166C78.5726 141.26 79.6934 139.968 80.3941 138.442L107.992 81.0321H36.9007L64.4985 138.442Z" fill="url(#paint0_linear_427_1223)"/>
</g>
<path d="M17.0796 190.53C15.6996 190.53 14.4596 190.29 13.3596 189.81C12.2796 189.31 11.4296 188.63 10.8096 187.77C10.1896 186.89 9.86964 185.88 9.84964 184.74H12.7596C12.8596 185.72 13.2596 186.55 13.9596 187.23C14.6796 187.89 15.7196 188.22 17.0796 188.22C18.3796 188.22 19.3996 187.9 20.1396 187.26C20.8996 186.6 21.2796 185.76 21.2796 184.74C21.2796 183.94 21.0596 183.29 20.6196 182.79C20.1796 182.29 19.6296 181.91 18.9696 181.65C18.3096 181.39 17.4196 181.11 16.2996 180.81C14.9196 180.45 13.8096 180.09 12.9696 179.73C12.1496 179.37 11.4396 178.81 10.8396 178.05C10.2596 177.27 9.96964 176.23 9.96964 174.93C9.96964 173.79 10.2596 172.78 10.8396 171.9C11.4196 171.02 12.2296 170.34 13.2696 169.86C14.3296 169.38 15.5396 169.14 16.8996 169.14C18.8596 169.14 20.4596 169.63 21.6996 170.61C22.9596 171.59 23.6696 172.89 23.8296 174.51H20.8296C20.7296 173.71 20.3096 173.01 19.5696 172.41C18.8296 171.79 17.8496 171.48 16.6296 171.48C15.4896 171.48 14.5596 171.78 13.8396 172.38C13.1196 172.96 12.7596 173.78 12.7596 174.84C12.7596 175.6 12.9696 176.22 13.3896 176.7C13.8296 177.18 14.3596 177.55 14.9796 177.81C15.6196 178.05 16.5096 178.33 17.6496 178.65C19.0296 179.03 20.1396 179.41 20.9796 179.79C21.8196 180.15 22.5396 180.72 23.1396 181.5C23.7396 182.26 24.0396 183.3 24.0396 184.62C24.0396 185.64 23.7696 186.6 23.2296 187.5C22.6896 188.4 21.8896 189.13 20.8296 189.69C19.7696 190.25 18.5196 190.53 17.0796 190.53ZM35.2271 190.59C33.6871 190.59 32.2871 190.24 31.0271 189.54C29.7871 188.84 28.8071 187.85 28.0871 186.57C27.3871 185.27 27.0371 183.77 27.0371 182.07C27.0371 180.39 27.3971 178.91 28.1171 177.63C28.8571 176.33 29.8571 175.34 31.1171 174.66C32.3771 173.96 33.7871 173.61 35.3471 173.61C36.9071 173.61 38.3171 173.96 39.5771 174.66C40.8371 175.34 41.8271 176.32 42.5471 177.6C43.2871 178.88 43.6571 180.37 43.6571 182.07C43.6571 183.77 43.2771 185.27 42.5171 186.57C41.7771 187.85 40.7671 188.84 39.4871 189.54C38.2071 190.24 36.7871 190.59 35.2271 190.59ZM35.2271 188.19C36.2071 188.19 37.1271 187.96 37.9871 187.5C38.8471 187.04 39.5371 186.35 40.0571 185.43C40.5971 184.51 40.8671 183.39 40.8671 182.07C40.8671 180.75 40.6071 179.63 40.0871 178.71C39.5671 177.79 38.8871 177.11 38.0471 176.67C37.2071 176.21 36.2971 175.98 35.3171 175.98C34.3171 175.98 33.3971 176.21 32.5571 176.67C31.7371 177.11 31.0771 177.79 30.5771 178.71C30.0771 179.63 29.8271 180.75 29.8271 182.07C29.8271 183.41 30.0671 184.54 30.5471 185.46C31.0471 186.38 31.7071 187.07 32.5271 187.53C33.3471 187.97 34.2471 188.19 35.2271 188.19ZM49.9765 176.55C50.4565 175.61 51.1365 174.88 52.0165 174.36C52.9165 173.84 54.0065 173.58 55.2865 173.58V176.4H54.5665C51.5065 176.4 49.9765 178.06 49.9765 181.38V190.32H47.2465V173.88H49.9765V176.55ZM64.5579 187.8L69.6579 173.88H72.5679L66.1179 190.32H62.9379L56.4879 173.88H59.4279L64.5579 187.8ZM90.2543 181.47C90.2543 181.99 90.2243 182.54 90.1643 183.12H77.0243C77.1243 184.74 77.6743 186.01 78.6743 186.93C79.6943 187.83 80.9243 188.28 82.3643 188.28C83.5443 188.28 84.5243 188.01 85.3043 187.47C86.1043 186.91 86.6643 186.17 86.9843 185.25H89.9243C89.4843 186.83 88.6043 188.12 87.2843 189.12C85.9643 190.1 84.3243 190.59 82.3643 190.59C80.8043 190.59 79.4043 190.24 78.1643 189.54C76.9443 188.84 75.9843 187.85 75.2843 186.57C74.5843 185.27 74.2343 183.77 74.2343 182.07C74.2343 180.37 74.5743 178.88 75.2543 177.6C75.9343 176.32 76.8843 175.34 78.1043 174.66C79.3443 173.96 80.7643 173.61 82.3643 173.61C83.9243 173.61 85.3043 173.95 86.5043 174.63C87.7043 175.31 88.6243 176.25 89.2643 177.45C89.9243 178.63 90.2543 179.97 90.2543 181.47ZM87.4343 180.9C87.4343 179.86 87.2043 178.97 86.7443 178.23C86.2843 177.47 85.6543 176.9 84.8543 176.52C84.0743 176.12 83.2043 175.92 82.2443 175.92C80.8643 175.92 79.6843 176.36 78.7043 177.24C77.7443 178.12 77.1943 179.34 77.0543 180.9H87.4343ZM97.1878 176.13V185.82C97.1878 186.62 97.3578 187.19 97.6978 187.53C98.0378 187.85 98.6278 188.01 99.4678 188.01H101.478V190.32H99.0178C97.4978 190.32 96.3578 189.97 95.5978 189.27C94.8378 188.57 94.4578 187.42 94.4578 185.82V176.13H92.3278V173.88H94.4578V169.74H97.1878V173.88H101.478V176.13H97.1878ZM119.786 181.47C119.786 181.99 119.756 182.54 119.696 183.12H106.556C106.656 184.74 107.206 186.01 108.206 186.93C109.226 187.83 110.456 188.28 111.896 188.28C113.076 188.28 114.056 188.01 114.836 187.47C115.636 186.91 116.196 186.17 116.516 185.25H119.456C119.016 186.83 118.136 188.12 116.816 189.12C115.496 190.1 113.856 190.59 111.896 190.59C110.336 190.59 108.936 190.24 107.696 189.54C106.476 188.84 105.516 187.85 104.816 186.57C104.116 185.27 103.766 183.77 103.766 182.07C103.766 180.37 104.106 178.88 104.786 177.6C105.466 176.32 106.416 175.34 107.636 174.66C108.876 173.96 110.296 173.61 111.896 173.61C113.456 173.61 114.836 173.95 116.036 174.63C117.236 175.31 118.156 176.25 118.796 177.45C119.456 178.63 119.786 179.97 119.786 181.47ZM116.966 180.9C116.966 179.86 116.736 178.97 116.276 178.23C115.816 177.47 115.186 176.9 114.386 176.52C113.606 176.12 112.736 175.92 111.776 175.92C110.396 175.92 109.216 176.36 108.236 177.24C107.276 178.12 106.726 179.34 106.586 180.9H116.966ZM129.209 190.59C127.949 190.59 126.819 190.38 125.819 189.96C124.819 189.52 124.029 188.92 123.449 188.16C122.869 187.38 122.549 186.49 122.489 185.49H125.309C125.389 186.31 125.769 186.98 126.449 187.5C127.149 188.02 128.059 188.28 129.179 188.28C130.219 188.28 131.039 188.05 131.639 187.59C132.239 187.13 132.539 186.55 132.539 185.85C132.539 185.13 132.219 184.6 131.579 184.26C130.939 183.9 129.949 183.55 128.609 183.21C127.389 182.89 126.389 182.57 125.609 182.25C124.849 181.91 124.189 181.42 123.629 180.78C123.089 180.12 122.819 179.26 122.819 178.2C122.819 177.36 123.069 176.59 123.569 175.89C124.069 175.19 124.779 174.64 125.699 174.24C126.619 173.82 127.669 173.61 128.849 173.61C130.669 173.61 132.139 174.07 133.259 174.99C134.379 175.91 134.979 177.17 135.059 178.77H132.329C132.269 177.91 131.919 177.22 131.279 176.7C130.659 176.18 129.819 175.92 128.759 175.92C127.779 175.92 126.999 176.13 126.419 176.55C125.839 176.97 125.549 177.52 125.549 178.2C125.549 178.74 125.719 179.19 126.059 179.55C126.419 179.89 126.859 180.17 127.379 180.39C127.919 180.59 128.659 180.82 129.599 181.08C130.779 181.4 131.739 181.72 132.479 182.04C133.219 182.34 133.849 182.8 134.369 183.42C134.909 184.04 135.189 184.85 135.209 185.85C135.209 186.75 134.959 187.56 134.459 188.28C133.959 189 133.249 189.57 132.329 189.99C131.429 190.39 130.389 190.59 129.209 190.59Z" fill="#6A6A6A"/>
<defs>
<linearGradient id="paint0_linear_427_1223" x1="72.4463" y1="0.530273" x2="72.4463" y2="143.553" gradientUnits="userSpaceOnUse">
<stop stop-color="#B0002D"/>
<stop offset="1" stop-color="#820021" stop-opacity="0.69"/>
</linearGradient>
<clipPath id="clip0_427_1223">
<rect width="124.409" height="142.903" fill="white" transform="translate(10.2416 0.649292)"/>
</clipPath>
</defs>
</svg>
