<svg width="144" height="144" viewBox="0 0 144 144" fill="none" xmlns="http://www.w3.org/2000/svg">
<path d="M116.847 107.826H45.3953C35.5289 107.826 27.5325 115.823 27.5325 125.689V134.621C27.5325 139.552 31.5321 143.552 36.4639 143.552H125.778C130.71 143.552 134.709 139.552 134.709 134.621V125.689C134.709 115.823 126.713 107.826 116.847 107.826ZM81.121 134.621C76.1892 134.621 72.1896 130.621 72.1896 125.689C72.1896 120.757 76.1892 116.758 81.121 116.758C86.0528 116.758 90.0524 120.757 90.0524 125.689C90.0524 130.621 86.0528 134.621 81.121 134.621ZM92.2852 18.5121H138.768L143.641 0.649292H14.1353C6.73623 0.649292 0.73822 6.6473 0.73822 14.0464V58.7035C0.73822 66.1026 6.73623 72.1006 14.1353 72.1006H42.9587L45.3953 98.8949H116.847L121.72 81.0321H92.2852C91.0516 81.0321 90.0524 80.0328 90.0524 78.7992V74.3335C90.0524 73.0998 91.0516 72.1006 92.2852 72.1006H124.154L129.027 54.2378H92.2852C91.0516 54.2378 90.0524 53.2386 90.0524 52.0049V47.5392C90.0524 46.3056 91.0516 45.3064 92.2852 45.3064H131.461L136.334 27.4435H92.2852C91.0516 27.4435 90.0524 26.4443 90.0524 25.2107V20.745C90.0524 19.5113 91.0516 18.5121 92.2852 18.5121ZM18.6011 54.2378V18.5121H38.0883L41.3371 54.2378H18.6011Z" fill="url(#paint0_linear_425_1210)"/>
<defs>
<linearGradient id="paint0_linear_425_1210" x1="72.1896" y1="0.649292" x2="72.1896" y2="143.552" gradientUnits="userSpaceOnUse">
<stop stop-color="#56429A"/>
<stop offset="1" stop-color="#2E225B" stop-opacity="0.77"/>
</linearGradient>
</defs>
</svg>
